<svg xmlns="http://www.w3.org/2000/svg" xmlns:xlink="http://www.w3.org/1999/xlink" width="558.583" height="606.505" viewBox="0 0 558.583 606.505"><defs><style>.a{fill:none;}.b{fill:#007cc4;}.c{clip-path:url(#a);}.d{fill:#20639b;}.e{opacity:0.75;}.f{fill:#d9271b;}.g{opacity:0.85;}.h{fill:#fddd00;}.i{fill:rgba(217,39,27,0.6);}</style><clipPath id="a"><path class="a" d="M-17.3-4.4l480.27,7.94.3,129.6-481.635,8.223Z" transform="translate(668.188 5.76) rotate(150)"/></clipPath></defs><g transform="matrix(-0.485, 0.875, -0.875, -0.485, 543.552, -54.519)"><path class="b" d="M1247.361,146.768c47.94,3.1,57.108-25.592,42.59-65.81C1272.565,32.785,1319.5,9.407,1372.2,38.137,1446.986,78.9,1443.5,0,1443.5,0s-2.21-77.168,172.973,3.852c-79.385,44-328.315,183.116-403.393,224.732-7.427-5.621-18.314-5.005-22.769-26.523C1180.951,169.945,1215.39,144.7,1247.361,146.768Z" transform="translate(-937.585 0)"/><g class="c" transform="translate(-0.267 0)"><g transform="translate(283.214 -6.754)"><g transform="translate(78.617 75.271)"><g transform="translate(303.566 215.497)"><path class="d" d="M3191.618,1346.014a1.329,1.329,0,0,0-1.878,0l-39.288,39.242a1.328,1.328,0,0,0,0,1.878l.01.009a1.331,1.331,0,0,0,1.879,0l39.288-39.242a1.327,1.327,0,0,0,0-1.878Z" transform="translate(-3150.062 -1345.625)"/></g><g transform="translate(291.29 202.008)"><path class="d" d="M3149.792,1282.1a1.329,1.329,0,0,0-1.879,0l-55.624,55.56a1.326,1.326,0,0,0,0,1.877l.009.01a1.329,1.329,0,0,0,1.879,0l55.624-55.559a1.325,1.325,0,0,0,0-1.877Z" transform="translate(-3091.9 -1281.715)"/></g><g transform="translate(315.669 229.168)"><path class="d" d="M3232.635,1410.785a1.33,1.33,0,0,0-1.879,0l-22.961,22.9a1.326,1.326,0,0,0,0,1.877l.01.01a1.328,1.328,0,0,0,1.877,0l22.961-22.9a1.327,1.327,0,0,0,0-1.878Z" transform="translate(-3207.406 -1410.397)"/></g><g transform="translate(281.139 190.895)"><path class="d" d="M3113.532,1229.45a1.328,1.328,0,0,0-1.879,0l-67.458,67.38a1.326,1.326,0,0,0,0,1.877l.009.009a1.33,1.33,0,0,0,1.879,0l67.458-67.38a1.327,1.327,0,0,0,0-1.878Z" transform="translate(-3043.806 -1229.06)"/></g><g transform="translate(272.096 181.709)"><path class="d" d="M3077.6,1185.928l-76.254,76.166a1.327,1.327,0,0,0,0,1.878l.009.009a1.33,1.33,0,0,0,1.879,0l76.255-76.166a1.329,1.329,0,0,0,0-1.878l-.009-.01A1.33,1.33,0,0,0,3077.6,1185.928Z" transform="translate(-3000.961 -1185.539)"/></g><g transform="translate(263.788 173.57)"><path class="d" d="M2961.987,1230.538a1.328,1.328,0,0,0,0,1.878l.01.009a1.328,1.328,0,0,0,1.878,0l83.268-83.17a1.326,1.326,0,0,0,0-1.877l-.009-.009a1.33,1.33,0,0,0-1.879,0Z" transform="translate(-2961.598 -1146.98)"/></g><g transform="translate(256 166.152)"><path class="d" d="M2925.087,1203.035l.009.01a1.33,1.33,0,0,0,1.879,0l89.038-88.934a1.327,1.327,0,0,0,0-1.878l-.009-.009a1.33,1.33,0,0,0-1.88,0l-89.038,88.934A1.326,1.326,0,0,0,2925.087,1203.035Z" transform="translate(-2924.698 -1111.835)"/></g><g transform="translate(248.627 159.295)"><path class="d" d="M2890.157,1175.333l.01.01a1.329,1.329,0,0,0,1.878,0l93.833-93.724a1.327,1.327,0,0,0,0-1.878l-.009-.009a1.33,1.33,0,0,0-1.879,0l-93.832,93.724A1.326,1.326,0,0,0,2890.157,1175.333Z" transform="translate(-2889.768 -1079.344)"/></g><g transform="translate(241.574 152.917)"><path class="d" d="M2856.741,1149.108l.009.008a1.329,1.329,0,0,0,1.879,0l97.827-97.713a1.326,1.326,0,0,0,0-1.877l-.009-.009a1.33,1.33,0,0,0-1.879,0l-97.827,97.713A1.327,1.327,0,0,0,2856.741,1149.108Z" transform="translate(-2856.352 -1049.129)"/></g><g transform="translate(234.775 146.98)"><path class="d" d="M2824.527,1124.268l.009.009a1.33,1.33,0,0,0,1.88,0l101.12-101a1.327,1.327,0,0,0,0-1.878l-.009-.009a1.331,1.331,0,0,0-1.88,0l-101.119,101A1.327,1.327,0,0,0,2824.527,1124.268Z" transform="translate(-2824.138 -1021)"/></g><g transform="translate(227.957 141.484)"><path class="d" d="M2792.224,1101.093l.009.009a1.329,1.329,0,0,0,1.878,0l103.99-103.87a1.326,1.326,0,0,0,0-1.877l-.009-.009a1.33,1.33,0,0,0-1.879,0l-103.99,103.87A1.326,1.326,0,0,0,2792.224,1101.093Z" transform="translate(-2791.834 -994.957)"/></g><g transform="translate(221.024 136.44)"><path class="d" d="M2759.375,1079.732l.01.009a1.329,1.329,0,0,0,1.879,0l106.53-106.4a1.327,1.327,0,0,0,0-1.878l-.009-.009a1.33,1.33,0,0,0-1.879,0l-106.529,106.405A1.327,1.327,0,0,0,2759.375,1079.732Z" transform="translate(-2758.987 -971.061)"/></g><g transform="translate(213.972 131.843)"><path class="d" d="M2725.963,1060.163l.009.009a1.327,1.327,0,0,0,1.878,0l108.74-108.613a1.328,1.328,0,0,0,0-1.877l-.01-.01a1.328,1.328,0,0,0-1.879,0l-108.739,108.613A1.326,1.326,0,0,0,2725.963,1060.163Z" transform="translate(-2725.574 -949.283)"/></g><g transform="translate(206.752 127.268)"><path class="d" d="M2691.756,1040.837l.009.009a1.329,1.329,0,0,0,1.879,0l111.1-110.968a1.327,1.327,0,0,0,0-1.878l-.009-.009a1.329,1.329,0,0,0-1.879,0l-111.1,110.968A1.327,1.327,0,0,0,2691.756,1040.837Z" transform="translate(-2691.366 -927.603)"/></g><g transform="translate(199.352 122.485)"><path class="d" d="M2656.695,1020.918l.009.009a1.329,1.329,0,0,0,1.878,0l113.843-113.71a1.327,1.327,0,0,0,0-1.877l-.01-.01a1.33,1.33,0,0,0-1.879,0L2656.695,1019.04A1.327,1.327,0,0,0,2656.695,1020.918Z" transform="translate(-2656.305 -904.943)"/></g><g transform="translate(191.732 117.448)"><path class="d" d="M2620.592,1000.27l.01.009a1.328,1.328,0,0,0,1.878,0l117.062-116.926a1.327,1.327,0,0,0,0-1.877l-.009-.009a1.33,1.33,0,0,0-1.879,0L2620.593,998.393A1.326,1.326,0,0,0,2620.592,1000.27Z" transform="translate(-2620.203 -881.079)"/></g><g transform="translate(183.831 112.091)"><path class="d" d="M2583.158,978.707l.01.009a1.329,1.329,0,0,0,1.879,0l120.881-120.741a1.329,1.329,0,0,0,0-1.878l-.01-.009a1.33,1.33,0,0,0-1.879,0L2583.158,976.829A1.327,1.327,0,0,0,2583.158,978.707Z" transform="translate(-2582.769 -855.7)"/></g><g transform="translate(175.596 106.374)"><path class="d" d="M2544.143,956.129l.009.009a1.329,1.329,0,0,0,1.879,0l125.4-125.25a1.326,1.326,0,0,0,0-1.877l-.009-.01a1.329,1.329,0,0,0-1.879,0l-125.4,125.25A1.327,1.327,0,0,0,2544.143,956.129Z" transform="translate(-2543.753 -828.612)"/></g><g transform="translate(166.893 100.277)"><path class="d" d="M2502.91,932.6l.009.009a1.33,1.33,0,0,0,1.88,0L2635.558,802a1.326,1.326,0,0,0,0-1.877l-.01-.01a1.329,1.329,0,0,0-1.879,0L2502.911,930.72A1.327,1.327,0,0,0,2502.91,932.6Z" transform="translate(-2502.521 -799.724)"/></g><g transform="translate(157.57 93.753)"><path class="d" d="M2458.738,908.079l.009.009a1.33,1.33,0,0,0,1.879,0l137.157-137a1.327,1.327,0,0,0,0-1.877l-.009-.01a1.331,1.331,0,0,0-1.88,0l-137.157,137A1.327,1.327,0,0,0,2458.738,908.079Z" transform="translate(-2458.348 -768.816)"/></g><g transform="translate(147.358 86.802)"><path class="d" d="M2410.357,880.986a1.326,1.326,0,0,0,0,1.877l.01.009a1.328,1.328,0,0,0,1.878,0L2557.13,738.156a1.327,1.327,0,0,0,0-1.877l-.009-.009a1.329,1.329,0,0,0-1.879,0Z" transform="translate(-2409.968 -735.88)"/></g><g transform="translate(135.757 79.03)"><path class="d" d="M2510.215,699.449,2355.392,854.091a1.326,1.326,0,0,0,0,1.877l.009.009a1.329,1.329,0,0,0,1.879,0L2512.1,701.336a1.327,1.327,0,0,0,0-1.877l-.01-.009A1.328,1.328,0,0,0,2510.215,699.449Z" transform="translate(-2355.003 -699.06)"/></g><g transform="translate(121.886 70.118)"><path class="d" d="M2459.732,657.233l-.009-.01a1.33,1.33,0,0,0-1.879,0L2289.67,825.2a1.327,1.327,0,0,0,0,1.878l.009.009a1.329,1.329,0,0,0,1.879,0L2459.731,659.11A1.327,1.327,0,0,0,2459.732,657.233Z" transform="translate(-2289.281 -656.835)"/></g><g transform="translate(105.403 60.665)"><path class="d" d="M2398.132,612.439a1.329,1.329,0,0,0-1.879,0L2211.577,796.9a1.328,1.328,0,0,0,0,1.878l.01.009a1.329,1.329,0,0,0,1.879,0l184.676-184.461a1.326,1.326,0,0,0,0-1.878Z" transform="translate(-2211.188 -612.05)"/></g><g transform="translate(91.023 51.359)"><path class="d" d="M2342.376,568.348l-198.928,198.7a1.328,1.328,0,0,0,0,1.878l.009.009a1.329,1.329,0,0,0,1.879,0l198.929-198.7a1.327,1.327,0,0,0,0-1.877l-.009-.01A1.331,1.331,0,0,0,2342.376,568.348Z" transform="translate(-2143.059 -567.96)"/></g><g transform="translate(78.915 42.694)"><path class="d" d="M2086.081,737.316a1.326,1.326,0,0,0,0,1.878l.009.009a1.329,1.329,0,0,0,1.879,0l210.268-210.024a1.326,1.326,0,0,0,0-1.877l-.009-.01a1.33,1.33,0,0,0-1.879,0Z" transform="translate(-2085.692 -526.903)"/></g><g transform="translate(68.49 34.909)"><path class="d" d="M2036.686,711.074l.009.01a1.33,1.33,0,0,0,1.879,0l219.045-218.79a1.327,1.327,0,0,0,0-1.878l-.01-.009a1.33,1.33,0,0,0-1.879,0L2036.686,709.2A1.326,1.326,0,0,0,2036.686,711.074Z" transform="translate(-2036.297 -490.018)"/></g><g transform="translate(59.333 28.044)"><path class="d" d="M1993.3,685.128l.01.01a1.328,1.328,0,0,0,1.878,0l225.631-225.367a1.327,1.327,0,0,0,0-1.877l-.009-.009a1.329,1.329,0,0,0-1.879,0L1993.3,683.251A1.327,1.327,0,0,0,1993.3,685.128Z" transform="translate(-1992.915 -457.495)"/></g><g transform="translate(51.192 22.047)"><path class="d" d="M1954.731,661.406l.009.009a1.329,1.329,0,0,0,1.879,0l230.325-230.057a1.326,1.326,0,0,0,0-1.877l-.009-.01a1.331,1.331,0,0,0-1.88,0L1954.732,659.528A1.327,1.327,0,0,0,1954.731,661.406Z" transform="translate(-1954.342 -429.082)"/></g><g transform="translate(43.885 16.824)"><path class="d" d="M1920.114,639.739l.009.01a1.329,1.329,0,0,0,1.879,0l233.411-233.139a1.327,1.327,0,0,0,0-1.878l-.009-.009a1.33,1.33,0,0,0-1.879,0L1920.114,637.862A1.326,1.326,0,0,0,1920.114,639.739Z" transform="translate(-1919.725 -404.335)"/></g><g transform="translate(37.274 12.281)"><path class="d" d="M1888.789,619.931l.009.009a1.33,1.33,0,0,0,1.879,0L2125.8,385.088a1.327,1.327,0,0,0,0-1.877l-.01-.01a1.329,1.329,0,0,0-1.878,0L1888.789,618.053A1.328,1.328,0,0,0,1888.789,619.931Z" transform="translate(-1888.4 -382.812)"/></g><g transform="translate(31.263 8.332)"><path class="d" d="M1860.31,601.74l.01.009a1.329,1.329,0,0,0,1.878,0l235.649-235.374a1.326,1.326,0,0,0,0-1.877l-.01-.01a1.33,1.33,0,0,0-1.879,0L1860.311,599.863A1.327,1.327,0,0,0,1860.31,601.74Z" transform="translate(-1859.921 -364.1)"/></g><g transform="translate(25.766 4.976)"><path class="d" d="M1834.268,585.255l.009.009a1.329,1.329,0,0,0,1.879,0l235.061-234.786a1.327,1.327,0,0,0,0-1.877l-.009-.009a1.328,1.328,0,0,0-1.878,0L1834.268,583.378A1.327,1.327,0,0,0,1834.268,585.255Z" transform="translate(-1833.879 -348.202)"/></g><g transform="translate(20.717 2.408)"><path class="d" d="M1810.345,571.266l.01.01a1.329,1.329,0,0,0,1.878,0L2045.47,338.31a1.326,1.326,0,0,0,0-1.877l-.009-.009a1.33,1.33,0,0,0-1.879,0L1810.345,569.389A1.326,1.326,0,0,0,1810.345,571.266Z" transform="translate(-1809.956 -336.034)"/></g><g transform="translate(159.44 0.694)"><path class="d" d="M2467.608,416.873a1.33,1.33,0,0,0,1.879,0l86.786-86.686a1.327,1.327,0,0,0,0-1.877l-.01-.01a1.329,1.329,0,0,0-1.878,0L2467.6,414.985a1.328,1.328,0,0,0,0,1.878Z" transform="translate(-2467.209 -327.911)"/></g><g transform="translate(16.122 118.082)"><path class="d" d="M1788.574,998.8l.009.009a1.33,1.33,0,0,0,1.879,0l112.58-112.449a1.326,1.326,0,0,0,0-1.877l-.009-.009a1.329,1.329,0,0,0-1.878,0L1788.574,996.92A1.327,1.327,0,0,0,1788.574,998.8Z" transform="translate(-1788.185 -884.083)"/></g><g transform="translate(165.544)"><path class="d" d="M2496.528,398.75a1.329,1.329,0,0,0,1.879,0l71.933-71.85a1.327,1.327,0,0,0,0-1.878l-.009-.009a1.329,1.329,0,0,0-1.879,0l-71.933,71.85a1.326,1.326,0,0,0,0,1.878Z" transform="translate(-2496.13 -324.625)"/></g><g transform="translate(11.988 120.11)"><path class="d" d="M1768.989,1001.075l.009.009a1.33,1.33,0,0,0,1.88,0l105.245-105.115-.276-.277.674-.674h-.013a1.328,1.328,0,0,1-1.329-1.327h-.553L1768.99,999.2A1.328,1.328,0,0,0,1768.989,1001.075Z" transform="translate(-1768.6 -893.691)"/></g><g transform="translate(169.098 0.654)"><path class="d" d="M2513.362,388.211a1.33,1.33,0,0,0,1.879,0L2573.524,330a1.327,1.327,0,0,0,0-1.878l-.009-.009a1.33,1.33,0,0,0-1.88,0l-58.283,58.214a1.327,1.327,0,0,0,0,1.877Z" transform="translate(-2512.964 -327.721)"/></g><g transform="translate(8.348 121.657)"><path class="d" d="M1751.742,1001.062l.009.009a1.329,1.329,0,0,0,1.879,0l97.888-97.773a1.327,1.327,0,0,0,0-1.877l-.009-.009a1.329,1.329,0,0,0-1.879,0l-97.887,97.773A1.326,1.326,0,0,0,1751.742,1001.062Z" transform="translate(-1751.353 -901.023)"/></g><g transform="translate(172.904 3.582)"><path class="d" d="M2531.4,385.923a1.328,1.328,0,0,0,1.878,0l42.1-42.051a1.327,1.327,0,0,0,0-1.878l-.01-.009a1.329,1.329,0,0,0-1.879,0l-42.1,42.051a1.326,1.326,0,0,0,0,1.878Z" transform="translate(-2531 -341.596)"/></g><g transform="translate(5.243 121.444)"><path class="d" d="M1737.029,993.933l.01.01a1.329,1.329,0,0,0,1.879,0l91.763-91.656a1.327,1.327,0,0,0,0-1.877l-.009-.009a1.328,1.328,0,0,0-1.879,0l-91.763,91.655A1.326,1.326,0,0,0,1737.029,993.933Z" transform="translate(-1736.64 -900.012)"/></g><g transform="translate(184.545 14.576)"><path class="d" d="M2586.552,405.943a1.33,1.33,0,0,0,1.879,0l10-9.984a1.327,1.327,0,0,0,0-1.878l-.01-.009a1.329,1.329,0,0,0-1.879,0l-10,9.984a1.327,1.327,0,0,0,0,1.878Z" transform="translate(-2586.154 -393.684)"/></g><g transform="translate(2.745 121.337)"><path class="d" d="M1725.194,986.583l.01.009a1.329,1.329,0,0,0,1.879,0l84.911-84.811a1.327,1.327,0,0,0,0-1.877l-.009-.009a1.329,1.329,0,0,0-1.879,0l-84.91,84.811A1.327,1.327,0,0,0,1725.194,986.583Z" transform="translate(-1724.805 -899.506)"/></g><g transform="translate(0.942 121.597)"><path class="d" d="M1716.651,979.925l.009.009a1.329,1.329,0,0,0,1.879,0l77.01-76.92a1.327,1.327,0,0,0,0-1.878l-.01-.009a1.329,1.329,0,0,0-1.879,0l-77.01,76.92A1.328,1.328,0,0,0,1716.651,979.925Z" transform="translate(-1716.262 -900.739)"/></g><g transform="translate(0 122.424)"><path class="d" d="M1712.189,974.522l.01.01a1.328,1.328,0,0,0,1.879,0l67.679-67.6a1.326,1.326,0,0,0,0-1.877l-.009-.009a1.328,1.328,0,0,0-1.879,0l-67.68,67.6A1.327,1.327,0,0,0,1712.189,974.522Z" transform="translate(-1711.801 -904.656)"/></g><g transform="translate(0.247 124.172)"><path class="d" d="M1713.37,971.385a1.328,1.328,0,0,0,1.879,0l56.239-56.173a1.327,1.327,0,0,0,0-1.877l-.009-.01a1.33,1.33,0,0,0-1.879,0L1713.361,969.5a1.326,1.326,0,0,0,0,1.877Z" transform="translate(-1712.972 -912.936)"/></g><g transform="translate(2.424 127.661)"><path class="d" d="M1723.686,972.821a1.328,1.328,0,0,0,1.878,0l41.125-41.076a1.328,1.328,0,0,0,0-1.878l-.009-.009a1.33,1.33,0,0,0-1.879,0l-41.125,41.077a1.327,1.327,0,0,0,0,1.878Z" transform="translate(-1723.287 -929.468)"/></g><g transform="translate(10.446 137.087)"><path class="d" d="M1761.688,990.61a1.329,1.329,0,0,0,1.879,0l14.223-14.207a1.327,1.327,0,0,0,0-1.878l-.009-.009a1.33,1.33,0,0,0-1.879,0l-14.223,14.206a1.328,1.328,0,0,0,0,1.877Z" transform="translate(-1761.29 -974.129)"/></g></g><g class="e" transform="translate(0 26.763)"><path class="f" d="M1349.334,286.486c18.992,34.275,50.164,61.574,110.931,59.055,55.408-2.3,107.648-47.33,118.715-124.414,11.1-77.31-56.936-130.716-88.412-126.043s-11.505,65.936-59.358,71.11-74.055,4.967-86.664,44.215C1334.249,242.458,1340.97,271.389,1349.334,286.486Z" transform="translate(-1339.324 -94.8)"/></g><g class="g" transform="translate(229.159 225.813)"><path class="h" d="M2473.372,1112.84c23.382,13.649,43.341,19.984,68.5,18.49s49.7-15.084,46.885-43.482c-2.824-28.516-38.648-45.512-67.362-31.529-33.027,16.083-58.808,10.429-73.539-11.352-9.16-13.544-24.635-5.452-22.624,5.617C2428.878,1070.675,2446.133,1096.939,2473.372,1112.84Z" transform="translate(-2425.051 -1037.874)"/></g><g transform="translate(229.058 269.501)"><circle class="i" cx="25.09" cy="25.09" r="25.09"/></g><g transform="translate(66.544 114.072)"><circle class="h" cx="25.09" cy="25.09" r="25.09"/></g><g class="g" transform="translate(85.307 25.09)"><path class="h" d="M1785.469,155.93c47.528-49.74,84.844-64.888,148.309-68.8,55.534-3.42,99.417,27.587,115.233,56.567,15.41,28.236,17.357,62.439,0,87.652-17.12,24.868-44.279,36.691-101.9,37.2s-86.424,21.4-109.9,34.144-62.951,21.913-85.358-10.7S1755.991,186.78,1785.469,155.93Z" transform="translate(-1743.5 -86.874)"/></g><g transform="translate(296.066)"><path class="d" d="M2745.253,44.933c-6.491-19.954-3.979-44.1,15.565-62.488s37.522-15.79,46.956-10.777c7.9,4.2,16.979,11.3,16.141,26.777s4.051,25.4,14.252,34.211,21.635,19.732,8.086,33.755c-13.515,13.988-28.068,17.056-41.633,18.426C2776.79,87.646,2752.272,66.514,2745.253,44.933Z" transform="translate(-2742.05 32.001)"/></g><g transform="translate(341.229 135.488)"><path class="d" d="M2972.752,640.7a14.051,14.051,0,1,1,14.051-14.051,14.066,14.066,0,0,1-14.051,14.051Zm0,2.676a16.727,16.727,0,1,0-16.727-16.727,16.727,16.727,0,0,0,16.727,16.727Z" transform="translate(-2956.025 -609.924)"/></g><g transform="translate(165.074 21.78)"><path class="d" d="M2290.763-17.95a5.693,5.693,0,0,1-5.687-5.687,5.694,5.694,0,0,1,5.687-5.687,5.694,5.694,0,0,1,5.688,5.687,5.694,5.694,0,0,1-5.688,5.687Zm0,2.676a8.363,8.363,0,0,0,8.364-8.363A8.364,8.364,0,0,0,2290.763-32a8.363,8.363,0,0,0-8.363,8.363,8.363,8.363,0,0,0,8.363,8.363Z" transform="translate(-2282.4 32)"/></g><g transform="translate(235.849 13.381)"><path class="d" d="M2481.84,78.9a22.414,22.414,0,1,1,22.414-22.414A22.439,22.439,0,0,1,2481.84,78.9Zm0,2.676a25.09,25.09,0,1,0-25.09-25.09,25.09,25.09,0,0,0,25.09,25.09Z" transform="translate(-2456.75 -31.399)"/></g><g transform="translate(73.598 138.833)"><g transform="translate(0 37.789)"><path class="b" d="M1690.282,805.2l26.473,26.473a1.322,1.322,0,0,1,0,1.87h0a1.323,1.323,0,0,1-1.871,0l-26.473-26.473a1.321,1.321,0,0,1,0-1.87h0A1.322,1.322,0,0,1,1690.282,805.2Z" transform="translate(-1688.024 -804.816)"/></g><g transform="translate(3.544 50.78)"><path class="b" d="M1707.072,866.753l9.939,9.938a1.323,1.323,0,0,1,0,1.87h0a1.322,1.322,0,0,1-1.871,0l-9.939-9.939a1.322,1.322,0,0,1,0-1.87h0A1.323,1.323,0,0,1,1707.072,866.753Z" transform="translate(-1704.814 -866.365)"/></g><g transform="translate(0 28.344)"><path class="b" d="M1690.282,760.45l35.919,35.919a1.322,1.322,0,0,1,0,1.87h0a1.322,1.322,0,0,1-1.87,0l-35.919-35.919a1.322,1.322,0,0,1,0-1.87h0A1.323,1.323,0,0,1,1690.282,760.45Z" transform="translate(-1688.024 -760.063)"/></g><g transform="translate(1.971 20.869)"><path class="b" d="M1699.618,725.035l41.423,41.423a1.322,1.322,0,0,1,0,1.871h0a1.323,1.323,0,0,1-1.87,0l-41.424-41.423a1.324,1.324,0,0,1,0-1.87h0A1.324,1.324,0,0,1,1699.618,725.035Z" transform="translate(-1697.36 -724.648)"/></g><g transform="translate(5.204 14.656)"><path class="b" d="M1714.939,695.6l44.4,44.4a1.323,1.323,0,0,1,0,1.87h0a1.323,1.323,0,0,1-1.871,0l-44.4-44.4a1.322,1.322,0,0,1,0-1.87h0A1.322,1.322,0,0,1,1714.939,695.6Z" transform="translate(-1712.682 -695.213)"/></g><g transform="translate(9.453 9.452)"><path class="b" d="M1735.067,670.946l45.358,45.358a1.323,1.323,0,0,1,0,1.87h0a1.322,1.322,0,0,1-1.871,0L1733.2,672.816a1.323,1.323,0,0,1,0-1.87h0A1.323,1.323,0,0,1,1735.067,670.946Z" transform="translate(-1732.809 -670.559)"/></g><g transform="translate(14.656 5.204)"><path class="b" d="M1759.721,650.816l44.4,44.4a1.322,1.322,0,0,1,0,1.871h0a1.322,1.322,0,0,1-1.87,0l-44.4-44.4a1.323,1.323,0,0,1,0-1.87h0A1.323,1.323,0,0,1,1759.721,650.816Z" transform="translate(-1757.464 -650.429)"/></g><g transform="translate(20.869 1.971)"><path class="b" d="M1789.156,635.5l41.424,41.423a1.322,1.322,0,0,1,0,1.87h0a1.322,1.322,0,0,1-1.871,0l-41.423-41.423a1.322,1.322,0,0,1,0-1.87h0A1.322,1.322,0,0,1,1789.156,635.5Z" transform="translate(-1786.898 -635.111)"/></g><g transform="translate(28.344)"><path class="b" d="M1824.571,626.162l35.919,35.919a1.322,1.322,0,0,1,0,1.871h0a1.322,1.322,0,0,1-1.87,0L1822.7,628.033a1.322,1.322,0,0,1,0-1.87h0A1.322,1.322,0,0,1,1824.571,626.162Z" transform="translate(-1822.313 -625.775)"/></g><g transform="translate(37.79)"><path class="b" d="M1869.324,626.162l26.473,26.473a1.321,1.321,0,0,1,0,1.87h0a1.322,1.322,0,0,1-1.87,0l-26.474-26.473a1.323,1.323,0,0,1,0-1.87h0A1.322,1.322,0,0,1,1869.324,626.162Z" transform="translate(-1867.067 -625.775)"/></g><g transform="translate(50.78 3.544)"><path class="b" d="M1930.873,642.953l9.939,9.939a1.323,1.323,0,0,1,0,1.87h0a1.323,1.323,0,0,1-1.871,0L1929,644.823a1.323,1.323,0,0,1,0-1.87h0A1.323,1.323,0,0,1,1930.873,642.953Z" transform="translate(-1928.616 -642.565)"/></g></g></g></g></g></svg>