<svg xmlns="http://www.w3.org/2000/svg" width="155.097" height="125.975" viewBox="0 0 155.097 125.975"><defs><style>.a{fill:#fddd00;}.b{fill:#d9271b;}</style></defs><g transform="translate(-295.903 -1351.485)"><g transform="matrix(-0.017, -1, 1, -0.017, 297.373, 1477.46)"><ellipse class="a" cx="42.112" cy="42.112" rx="42.112" ry="42.112"/></g><g transform="matrix(-0.017, -1, 1, -0.017, 338.719, 1464.897)"><g transform="translate(0 63.426)"><path class="b" d="M3.79.651,48.223,45.083a2.219,2.219,0,0,1,0,3.138h0a2.22,2.22,0,0,1-3.14,0L.651,3.789a2.218,2.218,0,0,1,0-3.139h0A2.218,2.218,0,0,1,3.79.651Z"/></g><g transform="translate(5.948 85.23)"><path class="b" d="M3.79.651l16.681,16.68a2.22,2.22,0,0,1,0,3.139h0a2.22,2.22,0,0,1-3.14,0L.65,3.789A2.219,2.219,0,0,1,.65.651h0A2.22,2.22,0,0,1,3.79.651Z"/></g><g transform="translate(0 47.572)"><path class="b" d="M3.79.65,64.076,60.937a2.218,2.218,0,0,1,0,3.138h0a2.219,2.219,0,0,1-3.139,0L.651,3.789A2.218,2.218,0,0,1,.651.65h0A2.22,2.22,0,0,1,3.79.65Z"/></g><g transform="translate(3.307 35.026)"><path class="b" d="M3.79.649,73.315,70.174a2.219,2.219,0,0,1,0,3.14h0a2.22,2.22,0,0,1-3.139,0L.65,3.789a2.222,2.222,0,0,1,0-3.14h0A2.222,2.222,0,0,1,3.79.649Z"/></g><g transform="translate(8.735 24.599)"><path class="b" d="M3.789.65,78.315,75.177a2.22,2.22,0,0,1,0,3.138h0a2.221,2.221,0,0,1-3.14,0L.651,3.79a2.218,2.218,0,0,1,0-3.14h0A2.219,2.219,0,0,1,3.789.65Z"/></g><g transform="translate(15.865 15.865)"><path class="b" d="M3.79.65,79.919,76.779a2.22,2.22,0,0,1,0,3.138h0a2.219,2.219,0,0,1-3.14,0L.65,3.789A2.22,2.22,0,0,1,.65.65h0A2.22,2.22,0,0,1,3.79.65Z"/></g><g transform="translate(24.599 8.734)"><path class="b" d="M3.79.65,78.314,75.176a2.219,2.219,0,0,1,0,3.14h0a2.22,2.22,0,0,1-3.138,0L.65,3.789A2.22,2.22,0,0,1,.65.65h0A2.22,2.22,0,0,1,3.79.65Z"/></g><g transform="translate(35.026 3.307)"><path class="b" d="M3.79.651,73.316,70.176a2.219,2.219,0,0,1,0,3.139h0a2.219,2.219,0,0,1-3.14,0L.65,3.79A2.219,2.219,0,0,1,.65.651h0A2.219,2.219,0,0,1,3.79.651Z"/></g><g transform="translate(47.572 0)"><path class="b" d="M3.79.65,64.076,60.937a2.219,2.219,0,0,1,0,3.14h0a2.219,2.219,0,0,1-3.138,0L.65,3.79A2.22,2.22,0,0,1,.65.65h0A2.219,2.219,0,0,1,3.79.65Z"/></g><g transform="translate(63.426 0)"><path class="b" d="M3.789.65,48.222,45.083a2.218,2.218,0,0,1,0,3.139h0a2.219,2.219,0,0,1-3.138,0L.65,3.79A2.22,2.22,0,0,1,.65.65h0A2.219,2.219,0,0,1,3.789.65Z"/></g><g transform="translate(85.23 5.948)"><path class="b" d="M3.789.65,20.471,17.331a2.22,2.22,0,0,1,0,3.139h0a2.22,2.22,0,0,1-3.14,0L.65,3.79A2.221,2.221,0,0,1,.65.65h0A2.22,2.22,0,0,1,3.789.65Z"/></g></g></g></svg>